<svg width="22" height="23" viewBox="0 0 22 23" fill="none" xmlns="http://www.w3.org/2000/svg">
<g clip-path="url(#clip0_61_183)">
<path d="M21.9789 6.76206C21.9273 5.53998 21.7383 4.69982 21.4675 3.9718C21.1882 3.19903 20.7584 2.50717 20.1953 1.93202C19.6452 1.34792 18.9791 0.89405 18.2484 0.606564C17.548 0.323466 16.7486 0.125841 15.5797 0.0719592C14.402 0.0135143 14.0281 0 11.0412 0C8.0543 0 7.68043 0.0135143 6.50712 0.067396C5.33818 0.121278 4.53454 0.319078 3.83834 0.602001C3.099 0.89405 2.43722 1.34336 1.88708 1.93202C1.32838 2.50717 0.894408 3.20359 0.619254 3.96741C0.348464 4.69982 0.159432 5.53542 0.107893 6.7575C0.0519892 7.98871 0.0390625 8.37957 0.0390625 11.5022C0.0390625 14.6249 0.0519892 15.0158 0.103528 16.2424C0.155067 17.4645 0.344267 18.3047 0.615057 19.0327C0.894408 19.8055 1.32838 20.4973 1.88708 21.0725C2.43722 21.6566 3.10337 22.1104 3.83398 22.3979C4.53454 22.681 5.33381 22.8787 6.50292 22.9325C7.67607 22.9866 8.0501 22.9999 11.037 22.9999C14.0239 22.9999 14.3978 22.9866 15.5711 22.9325C16.74 22.8787 17.5437 22.681 18.2399 22.3979C19.7184 21.8003 20.8873 20.5782 21.459 19.0327C21.7296 18.3003 21.9188 17.4645 21.9703 16.2424C22.0219 15.0158 22.0348 14.6249 22.0348 11.5022C22.0348 8.37957 22.0304 7.98871 21.9789 6.76206ZM19.9977 16.1526C19.9504 17.2758 19.7699 17.8824 19.6195 18.2868C19.2498 19.2888 18.4892 20.084 17.5308 20.4705C17.144 20.6277 16.5596 20.8164 15.4893 20.8657C14.329 20.9198 13.9809 20.9331 11.0456 20.9331C8.1102 20.9331 7.75782 20.9198 6.60164 20.8657C5.52721 20.8164 4.94702 20.6277 4.56022 20.4705C4.08328 20.2862 3.64914 19.9941 3.29676 19.6122C2.93146 19.2393 2.65211 18.79 2.47583 18.2913C2.32541 17.887 2.14494 17.2758 2.09777 16.1571C2.04606 14.944 2.0333 14.58 2.0333 11.5112C2.0333 8.4424 2.04606 8.074 2.09777 6.86544C2.14494 5.74217 2.32541 5.13561 2.47583 4.73123C2.65211 4.23243 2.93146 3.77874 3.30113 3.41017C3.6577 3.02826 4.08747 2.73621 4.56459 2.5521C4.95138 2.39484 5.53594 2.20617 6.606 2.15667C7.76638 2.10279 8.11457 2.08928 11.0498 2.08928C13.9895 2.08928 14.3375 2.10279 15.4937 2.15667C16.5681 2.20617 17.1483 2.39484 17.5351 2.5521C18.0121 2.73621 18.4462 3.02826 18.7986 3.41017C19.1639 3.78313 19.4432 4.23243 19.6195 4.73123C19.7699 5.13561 19.9504 5.74656 19.9977 6.86544C20.0493 8.07857 20.0622 8.4424 20.0622 11.5112C20.0622 14.58 20.0493 14.9394 19.9977 16.1526Z" fill="white"/>
<path d="M11.0402 5.59375C7.92013 5.59375 5.38867 8.2401 5.38867 11.5021C5.38867 14.7642 7.92013 17.4105 11.0402 17.4105C14.1604 17.4105 16.6917 14.7642 16.6917 11.5021C16.6917 8.2401 14.1604 5.59375 11.0402 5.59375ZM11.0402 15.3348C9.01604 15.3348 7.37418 13.6184 7.37418 11.5021C7.37418 9.38583 9.01604 7.66951 11.0402 7.66951C13.0645 7.66951 14.7061 9.38583 14.7061 11.5021C14.7061 13.6184 13.0645 15.3348 11.0402 15.3348Z" fill="white"/>
<path d="M18.2346 5.36078C18.2346 6.1225 17.6438 6.74012 16.9151 6.74012C16.1865 6.74012 15.5957 6.1225 15.5957 5.36078C15.5957 4.59889 16.1865 3.98145 16.9151 3.98145C17.6438 3.98145 18.2346 4.59889 18.2346 5.36078Z" fill="white"/>
</g>
<defs>
<clipPath id="clip0_61_183">
<rect width="22" height="23" fill="white"/>
</clipPath>
</defs>
</svg>
