<svg width="22" height="20" viewBox="0 0 22 20" fill="none" xmlns="http://www.w3.org/2000/svg">
<path d="M18.7889 0.379962C15.7382 0.269045 13.6776 2.01804 12.5904 5.59946C13.1496 5.34921 13.6932 5.23738 14.2193 5.23738C15.3367 5.23738 15.8308 5.87629 15.6988 7.14588C15.6328 7.91496 15.1415 9.03329 14.2212 10.5045C13.2962 11.9758 12.6051 12.7128 12.1449 12.7128C10.7497 12.7128 9.911 6.03579 9.62683 4.21254C9.23175 1.67796 8.1785 0.492712 6.46708 0.658628C4.89592 0.808045 2.15417 3.63688 0 5.55454L1.03492 6.90388C2.02033 6.20538 2.59508 5.85521 2.75917 5.85521C4.47425 5.85521 5.30475 11.6916 6.63667 16.032C7.53042 18.4273 8.602 19.6254 9.89358 19.6254C11.9689 19.6254 14.4971 17.66 17.4928 13.7275C20.3848 9.96279 21.8827 6.99554 21.9789 4.83129L21.9908 4.82213C22.1137 1.92088 21.0549 0.435878 18.7889 0.379962Z" fill="white"/>
</svg>
