<svg width="23" height="23" viewBox="0 0 23 23" fill="none" xmlns="http://www.w3.org/2000/svg">
<g clip-path="url(#clip0_61_181)">
<path d="M19.0852 12.4855C18.7134 12.0159 18.8197 11.807 19.0852 11.3872C19.09 11.3825 22.1595 7.14087 22.4758 5.70241L22.4777 5.70145C22.6349 5.17724 22.4777 4.79199 21.7177 4.79199H19.2031C18.5629 4.79199 18.2677 5.12262 18.1096 5.49253C18.1096 5.49253 16.8293 8.55728 15.018 10.5439C14.4335 11.118 14.1632 11.302 13.8441 11.302C13.6869 11.302 13.4425 11.118 13.4425 10.5937V5.70145C13.4425 5.07278 13.2633 4.79199 12.7334 4.79199H8.77929C8.37775 4.79199 8.13912 5.08524 8.13912 5.35837C8.13912 5.95445 9.04475 6.09149 9.13867 7.76858V11.4074C9.13867 12.2047 8.99396 12.3513 8.67292 12.3513C7.81808 12.3513 5.74329 9.27412 4.51375 5.75224C4.26554 5.06895 4.02308 4.79295 3.37812 4.79295H0.8625C0.144708 4.79295 0 5.12358 0 5.49349C0 6.14708 0.854833 9.39678 3.97517 13.6901C6.05475 16.6207 8.98341 18.2087 11.6476 18.2087C13.249 18.2087 13.4445 17.856 13.4445 17.2494C13.4445 14.4491 13.2997 14.1846 14.1019 14.1846C14.4737 14.1846 15.1139 14.3686 16.6089 15.7822C18.3176 17.4583 18.5984 18.2087 19.5548 18.2087H22.0695C22.7863 18.2087 23.1495 17.856 22.9406 17.1602C22.4624 15.6969 19.2309 12.6867 19.0852 12.4855Z" fill="white"/>
</g>
<defs>
<clipPath id="clip0_61_181">
<rect width="23" height="23" fill="white"/>
</clipPath>
</defs>
</svg>
