<svg width="23" height="16" viewBox="0 0 23 16" fill="none" xmlns="http://www.w3.org/2000/svg">
<path d="M21.8252 3.11039C21.5767 2.18664 20.8484 1.45846 19.9248 1.20972C18.2375 0.748047 11.488 0.748047 11.488 0.748047C11.488 0.748047 4.73881 0.748047 3.05148 1.19222C2.14563 1.44069 1.39955 2.18677 1.15107 3.11039C0.707031 4.79759 0.707031 8.29663 0.707031 8.29663C0.707031 8.29663 0.707031 11.8133 1.15107 13.4829C1.39981 14.4065 2.12786 15.1347 3.05161 15.3834C4.75658 15.8452 11.4883 15.8452 11.4883 15.8452C11.4883 15.8452 18.2375 15.8452 19.9248 15.401C20.8486 15.1524 21.5767 14.4243 21.8255 13.5006C22.2694 11.8133 22.2694 8.3144 22.2694 8.3144C22.2694 8.3144 22.2872 4.79759 21.8252 3.11039ZM9.33914 11.5292V5.0641L14.9516 8.29663L9.33914 11.5292Z" fill="white"/>
</svg>
