<svg width="127" height="34" viewBox="0 0 127 34" fill="none" xmlns="http://www.w3.org/2000/svg">
<path d="M42.6784 1.87939H38.7422V32.4364H42.6784V1.87939Z" fill="white"/>
<path d="M120.853 1.87939L111.932 23.5131L103.325 1.87939H97.1641V32.4435H101.093V6.36252L109.921 28.8283H113.686L122.429 6.89332V32.4435H126.358V1.87939H120.853Z" fill="white"/>
<path d="M4.99809 13.1553C3.00859 14.1595 1.50398 15.4506 1.21875 15.7017L3.77872 18.6211C4.07821 18.3557 4.49893 18.0185 4.99809 17.6742V32.4363H8.9343V22.8173V18.0616V15.8666C9.29084 15.8164 9.61886 15.8093 9.92549 15.8738C10.6956 16.0388 11.373 16.4118 12.1717 16.8493C14.1897 17.9612 16.9565 19.4818 21.5986 16.8278L19.6805 13.4422C16.9066 15.0202 15.8227 14.4249 14.0257 13.435C13.0916 12.9257 12.0362 12.3375 10.7027 12.065C10.118 11.943 9.51903 11.9215 8.92717 11.9645V10.2932V5.48732H24.4438L25.5777 1.88647H4.99809V13.1553Z" fill="white"/>
<path d="M82.0682 28.6202C81.348 29.1152 80.913 29.4093 79.5296 28.0249C77.8182 26.3105 74.973 22.2363 73.2046 19.611C75.7004 19.4245 77.6685 18.5637 79.0875 17.0287C80.5565 15.4291 81.2981 13.3274 81.2981 10.7164C81.2981 9.39661 81.077 8.21307 80.642 7.15864C80.1999 6.10421 79.5938 5.20041 78.8308 4.45442C78.0536 3.7156 77.1265 3.13459 76.0498 2.74007C74.973 2.34556 73.7964 2.14471 72.5129 2.14471H58.6934V32.7017H62.6296V19.6899H64.1556H66.1237H68.5909C69.6463 21.3038 74.1886 28.1683 76.8057 30.7937C78.4529 32.4363 79.9432 32.9456 81.1626 32.9456C82.6387 32.9456 83.7297 32.2067 84.2431 31.8553C84.3073 31.8122 84.3715 31.7692 84.4285 31.7333L82.439 28.3907C82.332 28.4481 82.2108 28.5342 82.0682 28.6202ZM62.6296 16.1249V5.75273H72.3275C73.9605 5.75273 75.2012 6.15442 76.064 6.95779C76.9269 7.76834 77.3547 9.01644 77.3547 10.7093C77.3547 12.5599 76.8984 13.9228 75.9999 14.8051C75.0943 15.6873 73.6966 16.1249 71.8069 16.1249H62.6296Z" fill="white"/>
</svg>
